<svg xmlns="http://www.w3.org/2000/svg" fill="none" viewBox="0 0 198 48"><g clip-path="url(#logo-a)"><path d="m85.57 44.87 1.63 3h-.96l-1.53-2.97h-1.67v2.97h-.82V40.7h2.9c1.28 0 2.24.79 2.24 2.1 0 1.16-.75 1.91-1.79 2.08Zm-2.53-.72h2c.93 0 1.49-.5 1.49-1.36 0-.85-.56-1.35-1.5-1.35h-1.99v2.7Zm7.56-1.43c1.4 0 2.38.94 2.38 2.46v.41h-4.06c.06 1.05.73 1.73 1.74 1.73.87 0 1.3-.46 1.55-1.02l.68.35a2.3 2.3 0 0 1-2.23 1.37c-1.52 0-2.56-1.15-2.56-2.7 0-1.48 1.05-2.6 2.5-2.6Zm1.57 2.23c-.04-.99-.66-1.53-1.58-1.53-.93 0-1.56.6-1.67 1.53h3.25Zm-.58-4.26-.78 1.33h-.75l.58-1.33h.95Zm3.24 2.17v.84h.1c.24-.47.73-.94 1.76-.94 1.09 0 1.96.73 1.96 2.07v3.04h-.77v-2.99c0-1-.54-1.45-1.4-1.45-.95 0-1.63.65-1.63 1.9v2.54h-.78v-5.01h.76Zm7.43-.14c1.5 0 2.54 1.06 2.54 2.64 0 1.57-1.04 2.65-2.54 2.65s-2.53-1.08-2.53-2.65c0-1.57 1.02-2.64 2.53-2.64Zm0 4.6c1.05 0 1.76-.8 1.76-1.96s-.7-1.95-1.76-1.95-1.76.81-1.76 1.95c0 1.2.7 1.96 1.76 1.96Zm3.91-4.46 1.54 4.3h.1l1.55-4.3h.86l-1.9 5.01h-1.11l-1.9-5.01h.86Zm7.1-.14c1.5 0 2.54 1.06 2.54 2.64 0 1.57-1.04 2.65-2.54 2.65s-2.53-1.08-2.53-2.65c0-1.57 1.02-2.64 2.53-2.64Zm0 4.6c1.05 0 1.75-.8 1.75-1.96s-.7-1.95-1.75-1.95c-1.06 0-1.76.81-1.76 1.95 0 1.2.7 1.96 1.76 1.96Zm4.43-4.46v.84h.1c.23-.47.73-.94 1.76-.94 1.09 0 1.96.73 1.96 2.07v3.04h-.77v-2.99c0-1-.54-1.45-1.4-1.45-.95 0-1.63.65-1.63 1.9v2.54h-.78v-5.01h.76Zm6.98-.14c1.18 0 2.04.57 2.4 1.55l-.71.26c-.29-.9-.95-1.17-1.68-1.17-.7 0-1.19.28-1.19.78 0 .52.45.7 1.21.82l.39.07c1.08.19 1.92.47 1.92 1.46 0 .92-.8 1.52-2.02 1.52-1.26 0-2.18-.59-2.52-1.66l.72-.24c.22.9.97 1.25 1.79 1.25.82 0 1.27-.37 1.27-.84 0-.51-.47-.67-1.28-.8l-.4-.07c-1.07-.2-1.85-.6-1.85-1.48 0-.86.8-1.45 1.95-1.45Zm11.37 5.15h-.76V47h-.1c-.3.52-.84 1.02-1.88 1.02-1.3 0-2.34-1.04-2.34-2.65 0-1.62 1.04-2.65 2.34-2.65 1.03 0 1.57.5 1.86.98h.1v-3.01h.78v7.18Zm-4.29-2.5c0 1.21.72 1.95 1.74 1.95 1.04 0 1.78-.75 1.78-1.95s-.74-1.96-1.78-1.96c-1.02 0-1.74.75-1.74 1.96Zm9.54 2.5v-.84h-.1c-.25.48-.75.94-1.77.94-1.1 0-1.97-.72-1.97-2.07v-3.04h.78v3c0 1 .54 1.44 1.4 1.44.95 0 1.64-.64 1.64-1.9v-2.53h.77v5.01h-.75Zm2.96-4.35h.1c.2-.48.58-.68 1.25-.68h.68v.69h-.8c-.74 0-1.2.4-1.2 1.26v3.08h-.79v-5.01h.76v.66Zm4.89-.8c1.3 0 2.08.75 2.08 1.97v3.18h-.74v-.77h-.1c-.27.44-.79.92-1.8.92-1.04 0-1.81-.52-1.81-1.46 0-.96.8-1.37 1.8-1.5l1.89-.26v-.15c0-.76-.48-1.26-1.35-1.26-.87 0-1.33.5-1.52 1.19l-.74-.26c.28-.84 1-1.6 2.28-1.6Zm-.46 4.66c1 0 1.78-.6 1.78-1.71v-.25l-1.8.25c-.65.09-1.12.33-1.12.86s.44.85 1.14.85Zm4.71-6.69v3h.1c.29-.48.83-.97 1.85-.97 1.3 0 2.35 1.02 2.35 2.64s-1.05 2.65-2.35 2.65a2 2 0 0 1-1.87-1.01h-.1v.87h-.76v-7.18h.78Zm0 4.68c0 1.2.73 1.95 1.76 1.95 1.04 0 1.75-.74 1.75-1.95s-.7-1.96-1.75-1.96c-1.03 0-1.77.76-1.77 1.96Zm6.21 2.5h-.78V40.7h.78v7.18Zm3.61-5.15c1.4 0 2.39.94 2.39 2.46v.41h-4.07c.06 1.05.74 1.73 1.74 1.73.87 0 1.31-.46 1.55-1.02l.68.35a2.3 2.3 0 0 1-2.22 1.37c-1.53 0-2.56-1.15-2.56-2.7 0-1.48 1.05-2.6 2.49-2.6Zm1.58 2.23c-.05-.99-.67-1.53-1.58-1.53-.93 0-1.56.6-1.67 1.53h3.25Zm2.66-2.09v.66h.1c.23-.44.68-.76 1.42-.76.78 0 1.26.4 1.47.92h.1c.28-.56.75-.92 1.55-.92.98 0 1.68.66 1.68 1.71v3.4H173v-3.33c0-.67-.42-1.1-1.12-1.1-.73 0-1.26.5-1.26 1.4v3.04h-.78v-3.34c0-.67-.41-1.1-1.12-1.1-.72 0-1.25.5-1.25 1.41v3.03h-.78v-5.02h.76Zm9.88-.14c1.4 0 2.39.94 2.39 2.46v.41h-4.07c.06 1.05.74 1.73 1.74 1.73.87 0 1.31-.46 1.55-1.02l.68.35a2.3 2.3 0 0 1-2.22 1.37c-1.53 0-2.56-1.15-2.56-2.7 0-1.48 1.04-2.6 2.49-2.6Zm1.57 2.23c-.04-.99-.66-1.53-1.57-1.53-.94 0-1.57.6-1.68 1.53h3.25Zm2.67-2.09v.84h.1c.23-.47.73-.94 1.76-.94 1.09 0 1.96.73 1.96 2.07v3.04h-.78v-2.99c0-1-.54-1.45-1.4-1.45-.95 0-1.63.65-1.63 1.9v2.54h-.78v-5.01h.77Zm4.48 0h1.53v-1.8h.78v1.8H190v.66h-1.63v3.39c0 .2.1.3.28.3h1.13v.67h-1.37c-.5 0-.82-.32-.82-.84v-3.52h-1.53v-.66ZM131.56 24v-.09c0-7.09 5.26-13.04 12.46-13.04a12.2 12.2 0 0 1 9.7 4.32l-3.36 3.39a8.19 8.19 0 0 0-6.39-2.91c-3.98 0-7.55 3.8-7.55 8.14v.1c0 4.44 3.57 8.2 7.78 8.2 2.58 0 4.43-1.28 6.15-3.13l3.37 3.25c-2.36 2.74-5.12 4.68-9.79 4.68-7.11 0-12.37-5.82-12.37-12.9Zm-21.14-5.3c5.25 0 8.79 3.5 8.79 8.82v1.63h-13.16c.18 2.22 2.04 4 4.6 4 2.54 0 3.86-1.36 4.76-2.54l3.19 2.05c-1.02 1.32-2.85 4.23-7.96 4.23-5.54 0-9.29-3.89-9.29-9.23s3.76-8.96 9.08-8.96Zm4.12 7.4c-.25-2.26-1.78-3.65-4.15-3.65-2.59 0-4 1.46-4.3 3.65h8.45Zm-51.66-7.08H58c0-2.86-1.84-4-4.84-4s-4.4 1.14-4.4 3 1.4 2.72 4.62 3.4l.87.17c5.6 1.15 9.16 3 9.16 7.59 0 4.58-3.87 7.72-9.95 7.72-6.08 0-10.32-3.22-10.32-8.65v-.36h4.88v.36c0 3 2.06 4.5 5.44 4.5 3.38 0 5.07-1.43 5.07-3.43 0-2.08-1.77-2.8-5.14-3.5l-.87-.18c-5.51-1.15-8.63-2.9-8.63-7.48s3.64-7.3 9.27-7.3c5.63 0 9.72 2.72 9.72 8.16Z" fill="#242B58"></path><path d="M67.74 44.41h5.1l9.38-25.4h-5.14l-4.2 11.4L68.02 19h-5.14l7.6 17.85-2.74 7.55Zm90.38-26.83c1.83 0 3.32-1.5 3.32-3.35a3.34 3.34 0 0 0-3.32-3.36 3.34 3.34 0 0 0-3.33 3.36 3.34 3.34 0 0 0 3.33 3.35ZM86.81 36.59v-9.74c0-2.78 1.4-4.16 3.9-4.16v-.02.02c2.51 0 3.91 1.37 3.91 4.16v9.74h4.64v-9.96c0-4.44-2.18-7.72-8.25-7.92h-.59c-6.06.2-8.2 3.49-8.2 7.92v9.96h4.6Zm39.12 0v-9.75c0-2.79 1.33-4.04 4.55-3.8l.76-4.27-.35-.03c-.68-.06-1.37-.07-2.05-.02-5.53.43-7.55 3.63-7.55 7.9v9.96h4.64Zm34.57-17.57h-4.7v17.57h4.7V19.02Zm11.17-.32c5.25 0 8.79 3.5 8.79 8.82v1.63H167.3c.18 2.22 2.04 4 4.59 4s3.87-1.36 4.77-2.54l3.18 2.05c-1.02 1.32-2.85 4.23-7.95 4.23-5.54 0-9.3-3.89-9.3-9.23s3.76-8.96 9.08-8.96Zm4.12 7.4c-.25-2.26-1.78-3.65-4.15-3.65-2.6 0-4.01 1.46-4.3 3.65h8.45ZM190 36.87l-.57-4.98c-.82 0-1.2-.35-1.42-.65-.48-.7-.74-1.87-.74-3.4V11.2h-4.74v16.86c0 2.57.56 4.66 1.64 6.19.6.86 1.38 1.52 2.28 2 .9.43 1.9.65 2.98.65.2 0 .38 0 .57-.02ZM33.23 6.93a14.82 14.82 0 0 0-22.73-2.9 15.14 15.14 0 0 0 .06 22.01c0 .02.02.03.04.04a5.34 5.34 0 0 0 7.57-.37L32.98 9.55c.66-.72.77-1.8.25-2.62Z" fill="#242B58"></path><path d="M15.7 8.84c-3.6 0-6.93 1.2-9.63 3.2a15.12 15.12 0 0 0 4.49 14l.04.04a5.35 5.35 0 0 0 7.58-.38l10-10.93A16.11 16.11 0 0 0 15.7 8.84Z" fill="#3F6BA9"></path><path d="M20.23 31.97A15.59 15.59 0 0 1 7.5 25.5L.47 33.21c-.69.74-.5 1.69-.2 2.58.65 1.8 2 3.17 3.51 4.49a17.07 17.07 0 0 0 23.16-.8c4.22-4.16 4.8-9.3 4.97-12.65-2.04 3.28-6.62 5.39-11.68 5.14Z" fill="#EC6726"></path><path d="M8.81 24.11a14.82 14.82 0 0 0 23.1.83 16.4 16.4 0 0 0-3.73-10.15l-10 10.92a5.34 5.34 0 0 1-7.57.36l-.04-.04a15.8 15.8 0 0 1-1.74-1.93l-.02.01Z" fill="#FBBB16"></path><path d="M8.81 24.11c.52.69 1.1 1.34 1.74 1.94l.04.03a5.34 5.34 0 0 0 7.57-.36l10-10.91c-.21-.26-.43-.5-.65-.75l-.07-.08c-.23-.25-.48-.5-.73-.73l-.05-.04a5.73 5.73 0 0 0-3.61-1.52 5.87 5.87 0 0 0-4.6 1.9L8.8 24.11Z" fill="#87B726"></path></g><defs><clipPath id="logo-a"><path fill="#fff" d="M0 0h198v48H0z"></path></clipPath></defs></svg>